<mxfile host="app.diagrams.net" modified="2021-01-19T09:07:56.523Z" agent="5.0 (Macintosh; Intel Mac OS X 11_1_0) AppleWebKit/537.36 (KHTML, like Gecko) Chrome/87.0.4280.141 Safari/537.36" etag="v0XGooKv3W-_EKkt-von" version="14.2.3" type="github">
  <diagram id="BYXtPTrj3wS4VnRM4A9D" name="Page-1">
    <mxGraphModel dx="1864" dy="797" grid="1" gridSize="10" guides="1" tooltips="1" connect="1" arrows="1" fold="1" page="1" pageScale="1" pageWidth="827" pageHeight="1169" math="0" shadow="0">
      <root>
        <mxCell id="0" />
        <mxCell id="1" parent="0" />
        <mxCell id="1Wt5qBZkZCk6-77Jn2j1-45" value="" style="rounded=0;whiteSpace=wrap;html=1;fontSize=13;fillColor=#fff2cc;strokeColor=#d6b656;dashed=1;strokeWidth=2;" vertex="1" parent="1">
          <mxGeometry x="250" y="130" width="590" height="690" as="geometry" />
        </mxCell>
        <mxCell id="1Wt5qBZkZCk6-77Jn2j1-44" value="" style="rounded=0;whiteSpace=wrap;html=1;fontSize=13;fillColor=#dae8fc;strokeColor=#6c8ebf;dashed=1;strokeWidth=2;" vertex="1" parent="1">
          <mxGeometry x="10" y="130" width="200" height="690" as="geometry" />
        </mxCell>
        <mxCell id="1Wt5qBZkZCk6-77Jn2j1-6" style="edgeStyle=orthogonalEdgeStyle;rounded=0;orthogonalLoop=1;jettySize=auto;html=1;exitX=0.5;exitY=1;exitDx=0;exitDy=0;entryX=0.5;entryY=0;entryDx=0;entryDy=0;fontSize=17;fontColor=#3D3D3D;" edge="1" parent="1" source="1Wt5qBZkZCk6-77Jn2j1-1" target="1Wt5qBZkZCk6-77Jn2j1-3">
          <mxGeometry relative="1" as="geometry" />
        </mxCell>
        <mxCell id="1Wt5qBZkZCk6-77Jn2j1-1" value="開始" style="rounded=1;whiteSpace=wrap;html=1;arcSize=50;fontSize=17;fillColor=#e1d5e7;strokeColor=#9673a6;fontColor=#3D3D3D;" vertex="1" parent="1">
          <mxGeometry x="60" y="220" width="100" height="50" as="geometry" />
        </mxCell>
        <mxCell id="1Wt5qBZkZCk6-77Jn2j1-2" value="結束" style="rounded=1;whiteSpace=wrap;html=1;arcSize=50;fontSize=17;fillColor=#e1d5e7;strokeColor=#9673a6;fontColor=#3D3D3D;" vertex="1" parent="1">
          <mxGeometry x="60" y="570" width="100" height="50" as="geometry" />
        </mxCell>
        <mxCell id="1Wt5qBZkZCk6-77Jn2j1-7" style="edgeStyle=orthogonalEdgeStyle;rounded=0;orthogonalLoop=1;jettySize=auto;html=1;exitX=0.5;exitY=1;exitDx=0;exitDy=0;entryX=0.5;entryY=0;entryDx=0;entryDy=0;fontSize=17;fontColor=#3D3D3D;" edge="1" parent="1" source="1Wt5qBZkZCk6-77Jn2j1-3" target="1Wt5qBZkZCk6-77Jn2j1-5">
          <mxGeometry relative="1" as="geometry" />
        </mxCell>
        <mxCell id="1Wt5qBZkZCk6-77Jn2j1-3" value="莊家先&lt;br&gt;指定數字" style="rounded=0;whiteSpace=wrap;html=1;fontSize=17;fontColor=#3D3D3D;" vertex="1" parent="1">
          <mxGeometry x="50" y="310" width="120" height="50" as="geometry" />
        </mxCell>
        <mxCell id="1Wt5qBZkZCk6-77Jn2j1-9" style="edgeStyle=orthogonalEdgeStyle;rounded=0;orthogonalLoop=1;jettySize=auto;html=1;exitX=0.5;exitY=1;exitDx=0;exitDy=0;entryX=0.5;entryY=0;entryDx=0;entryDy=0;fontSize=17;fontColor=#3D3D3D;" edge="1" parent="1" source="1Wt5qBZkZCk6-77Jn2j1-4" target="1Wt5qBZkZCk6-77Jn2j1-2">
          <mxGeometry relative="1" as="geometry" />
        </mxCell>
        <mxCell id="1Wt5qBZkZCk6-77Jn2j1-10" style="edgeStyle=orthogonalEdgeStyle;rounded=0;orthogonalLoop=1;jettySize=auto;html=1;exitX=1;exitY=0.5;exitDx=0;exitDy=0;entryX=1;entryY=0.5;entryDx=0;entryDy=0;fontSize=17;fontColor=#3D3D3D;" edge="1" parent="1" source="1Wt5qBZkZCk6-77Jn2j1-4" target="1Wt5qBZkZCk6-77Jn2j1-5">
          <mxGeometry relative="1" as="geometry" />
        </mxCell>
        <mxCell id="1Wt5qBZkZCk6-77Jn2j1-4" value="是否正確" style="rhombus;whiteSpace=wrap;html=1;fontSize=17;fontColor=#3D3D3D;" vertex="1" parent="1">
          <mxGeometry x="45" y="490" width="130" height="50" as="geometry" />
        </mxCell>
        <mxCell id="1Wt5qBZkZCk6-77Jn2j1-8" style="edgeStyle=orthogonalEdgeStyle;rounded=0;orthogonalLoop=1;jettySize=auto;html=1;exitX=0.5;exitY=1;exitDx=0;exitDy=0;entryX=0.5;entryY=0;entryDx=0;entryDy=0;fontSize=17;fontColor=#3D3D3D;" edge="1" parent="1" source="1Wt5qBZkZCk6-77Jn2j1-5" target="1Wt5qBZkZCk6-77Jn2j1-4">
          <mxGeometry relative="1" as="geometry" />
        </mxCell>
        <mxCell id="1Wt5qBZkZCk6-77Jn2j1-5" value="挑戰者猜數字" style="rounded=0;whiteSpace=wrap;html=1;fontSize=17;fontColor=#3D3D3D;" vertex="1" parent="1">
          <mxGeometry x="50" y="400" width="120" height="50" as="geometry" />
        </mxCell>
        <mxCell id="1Wt5qBZkZCk6-77Jn2j1-11" style="edgeStyle=orthogonalEdgeStyle;rounded=0;orthogonalLoop=1;jettySize=auto;html=1;exitX=0.5;exitY=1;exitDx=0;exitDy=0;entryX=0.5;entryY=0;entryDx=0;entryDy=0;fontSize=17;fontColor=#3D3D3D;" edge="1" parent="1" source="1Wt5qBZkZCk6-77Jn2j1-12" target="1Wt5qBZkZCk6-77Jn2j1-15">
          <mxGeometry relative="1" as="geometry" />
        </mxCell>
        <mxCell id="1Wt5qBZkZCk6-77Jn2j1-12" value="開始" style="rounded=1;whiteSpace=wrap;html=1;arcSize=50;fontSize=17;fillColor=#e1d5e7;strokeColor=#9673a6;fontColor=#3D3D3D;" vertex="1" parent="1">
          <mxGeometry x="315" y="220" width="100" height="50" as="geometry" />
        </mxCell>
        <mxCell id="1Wt5qBZkZCk6-77Jn2j1-13" value="結束" style="rounded=1;whiteSpace=wrap;html=1;arcSize=50;fontSize=17;fillColor=#e1d5e7;strokeColor=#9673a6;fontColor=#3D3D3D;" vertex="1" parent="1">
          <mxGeometry x="315" y="740" width="100" height="50" as="geometry" />
        </mxCell>
        <mxCell id="1Wt5qBZkZCk6-77Jn2j1-14" style="edgeStyle=orthogonalEdgeStyle;rounded=0;orthogonalLoop=1;jettySize=auto;html=1;exitX=0.5;exitY=1;exitDx=0;exitDy=0;entryX=0.5;entryY=0;entryDx=0;entryDy=0;fontSize=17;fontColor=#3D3D3D;" edge="1" parent="1" source="1Wt5qBZkZCk6-77Jn2j1-15" target="1Wt5qBZkZCk6-77Jn2j1-20">
          <mxGeometry relative="1" as="geometry" />
        </mxCell>
        <mxCell id="1Wt5qBZkZCk6-77Jn2j1-15" value="莊家先&lt;br&gt;指定數字" style="rounded=0;whiteSpace=wrap;html=1;fontSize=17;fontColor=#3D3D3D;" vertex="1" parent="1">
          <mxGeometry x="305" y="310" width="120" height="50" as="geometry" />
        </mxCell>
        <mxCell id="1Wt5qBZkZCk6-77Jn2j1-38" style="edgeStyle=orthogonalEdgeStyle;rounded=0;orthogonalLoop=1;jettySize=auto;html=1;exitX=0.5;exitY=1;exitDx=0;exitDy=0;fontSize=13;fontColor=#3D3D3D;" edge="1" parent="1" source="1Wt5qBZkZCk6-77Jn2j1-18" target="1Wt5qBZkZCk6-77Jn2j1-13">
          <mxGeometry relative="1" as="geometry" />
        </mxCell>
        <mxCell id="1Wt5qBZkZCk6-77Jn2j1-39" style="edgeStyle=orthogonalEdgeStyle;rounded=0;orthogonalLoop=1;jettySize=auto;html=1;exitX=1;exitY=0.5;exitDx=0;exitDy=0;entryX=0.5;entryY=0;entryDx=0;entryDy=0;fontSize=13;fontColor=#3D3D3D;" edge="1" parent="1" source="1Wt5qBZkZCk6-77Jn2j1-18" target="1Wt5qBZkZCk6-77Jn2j1-21">
          <mxGeometry relative="1" as="geometry" />
        </mxCell>
        <mxCell id="1Wt5qBZkZCk6-77Jn2j1-18" value="莊主確認&lt;br&gt;數字是否正確" style="rhombus;whiteSpace=wrap;html=1;fontSize=13;fontColor=#3D3D3D;" vertex="1" parent="1">
          <mxGeometry x="300" y="585" width="130" height="50" as="geometry" />
        </mxCell>
        <mxCell id="1Wt5qBZkZCk6-77Jn2j1-36" style="edgeStyle=orthogonalEdgeStyle;rounded=0;orthogonalLoop=1;jettySize=auto;html=1;exitX=0.5;exitY=1;exitDx=0;exitDy=0;fontSize=14;fontColor=#3D3D3D;" edge="1" parent="1" source="1Wt5qBZkZCk6-77Jn2j1-20" target="1Wt5qBZkZCk6-77Jn2j1-35">
          <mxGeometry relative="1" as="geometry" />
        </mxCell>
        <mxCell id="1Wt5qBZkZCk6-77Jn2j1-20" value="挑戰者確認猜題範圍" style="rounded=0;whiteSpace=wrap;html=1;fontSize=17;fontColor=#3D3D3D;" vertex="1" parent="1">
          <mxGeometry x="305" y="400" width="120" height="50" as="geometry" />
        </mxCell>
        <mxCell id="1Wt5qBZkZCk6-77Jn2j1-40" style="edgeStyle=orthogonalEdgeStyle;rounded=0;orthogonalLoop=1;jettySize=auto;html=1;exitX=0.5;exitY=1;exitDx=0;exitDy=0;entryX=0.5;entryY=0;entryDx=0;entryDy=0;fontSize=13;fontColor=#3D3D3D;" edge="1" parent="1" source="1Wt5qBZkZCk6-77Jn2j1-21" target="1Wt5qBZkZCk6-77Jn2j1-23">
          <mxGeometry relative="1" as="geometry" />
        </mxCell>
        <mxCell id="1Wt5qBZkZCk6-77Jn2j1-41" style="edgeStyle=orthogonalEdgeStyle;rounded=0;orthogonalLoop=1;jettySize=auto;html=1;exitX=1;exitY=0.5;exitDx=0;exitDy=0;fontSize=13;fontColor=#3D3D3D;" edge="1" parent="1" source="1Wt5qBZkZCk6-77Jn2j1-21" target="1Wt5qBZkZCk6-77Jn2j1-24">
          <mxGeometry relative="1" as="geometry" />
        </mxCell>
        <mxCell id="1Wt5qBZkZCk6-77Jn2j1-21" value="是否過大" style="rhombus;whiteSpace=wrap;html=1;fontSize=17;fontColor=#3D3D3D;" vertex="1" parent="1">
          <mxGeometry x="490" y="635" width="130" height="50" as="geometry" />
        </mxCell>
        <mxCell id="1Wt5qBZkZCk6-77Jn2j1-42" style="edgeStyle=orthogonalEdgeStyle;rounded=0;orthogonalLoop=1;jettySize=auto;html=1;exitX=0.5;exitY=1;exitDx=0;exitDy=0;entryX=1;entryY=0.5;entryDx=0;entryDy=0;fontSize=13;fontColor=#3D3D3D;" edge="1" parent="1" source="1Wt5qBZkZCk6-77Jn2j1-23" target="1Wt5qBZkZCk6-77Jn2j1-20">
          <mxGeometry relative="1" as="geometry">
            <Array as="points">
              <mxPoint x="555" y="780" />
              <mxPoint x="820" y="780" />
              <mxPoint x="820" y="425" />
            </Array>
          </mxGeometry>
        </mxCell>
        <mxCell id="1Wt5qBZkZCk6-77Jn2j1-23" value="修改猜題範圍上界" style="rounded=0;whiteSpace=wrap;html=1;fontSize=17;fontColor=#3D3D3D;" vertex="1" parent="1">
          <mxGeometry x="495" y="710" width="120" height="50" as="geometry" />
        </mxCell>
        <mxCell id="1Wt5qBZkZCk6-77Jn2j1-43" style="edgeStyle=orthogonalEdgeStyle;rounded=0;orthogonalLoop=1;jettySize=auto;html=1;exitX=0.5;exitY=1;exitDx=0;exitDy=0;entryX=1;entryY=0.5;entryDx=0;entryDy=0;fontSize=13;fontColor=#3D3D3D;" edge="1" parent="1" source="1Wt5qBZkZCk6-77Jn2j1-24" target="1Wt5qBZkZCk6-77Jn2j1-20">
          <mxGeometry relative="1" as="geometry">
            <Array as="points">
              <mxPoint x="730" y="780" />
              <mxPoint x="820" y="780" />
              <mxPoint x="820" y="425" />
            </Array>
          </mxGeometry>
        </mxCell>
        <mxCell id="1Wt5qBZkZCk6-77Jn2j1-24" value="修改猜題範圍下界" style="rounded=0;whiteSpace=wrap;html=1;fontSize=17;fontColor=#3D3D3D;" vertex="1" parent="1">
          <mxGeometry x="670" y="710" width="120" height="50" as="geometry" />
        </mxCell>
        <mxCell id="1Wt5qBZkZCk6-77Jn2j1-37" style="edgeStyle=orthogonalEdgeStyle;rounded=0;orthogonalLoop=1;jettySize=auto;html=1;exitX=0.5;exitY=1;exitDx=0;exitDy=0;entryX=0.5;entryY=0;entryDx=0;entryDy=0;fontSize=14;fontColor=#3D3D3D;" edge="1" parent="1" source="1Wt5qBZkZCk6-77Jn2j1-35" target="1Wt5qBZkZCk6-77Jn2j1-18">
          <mxGeometry relative="1" as="geometry" />
        </mxCell>
        <mxCell id="1Wt5qBZkZCk6-77Jn2j1-35" value="選擇猜題範圍的一半作為猜題數字" style="rounded=0;whiteSpace=wrap;html=1;fontSize=14;fontColor=#3D3D3D;" vertex="1" parent="1">
          <mxGeometry x="305" y="490" width="120" height="50" as="geometry" />
        </mxCell>
        <mxCell id="1Wt5qBZkZCk6-77Jn2j1-46" value="原先的流程" style="text;html=1;strokeColor=none;fillColor=none;align=center;verticalAlign=middle;whiteSpace=wrap;rounded=0;dashed=1;fontSize=24;fontColor=#3D3D3D;fontStyle=1" vertex="1" parent="1">
          <mxGeometry x="40" y="160" width="140" height="20" as="geometry" />
        </mxCell>
        <mxCell id="1Wt5qBZkZCk6-77Jn2j1-47" value="修改後的流程" style="text;html=1;strokeColor=none;fillColor=none;align=center;verticalAlign=middle;whiteSpace=wrap;rounded=0;dashed=1;fontSize=24;fontColor=#3D3D3D;fontStyle=1" vertex="1" parent="1">
          <mxGeometry x="462.5" y="160" width="165" height="20" as="geometry" />
        </mxCell>
      </root>
    </mxGraphModel>
  </diagram>
</mxfile>
